<svg xmlns="http://www.w3.org/2000/svg" viewBox="0 0 900 300" fill="none">
  <defs>
    <linearGradient id="bg" x1="0" y1="0" x2="900" y2="300" gradientUnits="userSpaceOnUse">
      <stop offset="0%" stop-color="#0f172a"/>
      <stop offset="100%" stop-color="#1e293b"/>
    </linearGradient>
    <linearGradient id="accent" x1="0" y1="0" x2="1" y2="1">
      <stop offset="0%" stop-color="#818cf8"/>
      <stop offset="100%" stop-color="#6366f1"/>
    </linearGradient>
    <linearGradient id="line" x1="0" y1="0" x2="1" y2="0">
      <stop offset="0%" stop-color="#818cf8" stop-opacity="0"/>
      <stop offset="15%" stop-color="#818cf8" stop-opacity="0.6"/>
      <stop offset="50%" stop-color="#6366f1" stop-opacity="0.8"/>
      <stop offset="85%" stop-color="#818cf8" stop-opacity="0.6"/>
      <stop offset="100%" stop-color="#818cf8" stop-opacity="0"/>
    </linearGradient>
  </defs>

  <!-- Background -->
  <rect width="900" height="300" rx="12" fill="url(#bg)"/>

  <!-- Subtle grid pattern -->
  <g opacity="0.04" stroke="#94a3b8" stroke-width="1">
    <line x1="0" y1="50" x2="900" y2="50"/>
    <line x1="0" y1="100" x2="900" y2="100"/>
    <line x1="0" y1="150" x2="900" y2="150"/>
    <line x1="0" y1="200" x2="900" y2="200"/>
    <line x1="0" y1="250" x2="900" y2="250"/>
    <line x1="150" y1="0" x2="150" y2="300"/>
    <line x1="300" y1="0" x2="300" y2="300"/>
    <line x1="450" y1="0" x2="450" y2="300"/>
    <line x1="600" y1="0" x2="600" y2="300"/>
    <line x1="750" y1="0" x2="750" y2="300"/>
  </g>

  <!-- Agent A node -->
  <rect x="100" y="95" width="140" height="50" rx="8" fill="#1e293b" stroke="#334155" stroke-width="1.5"/>
  <text x="170" y="125" text-anchor="middle" font-family="ui-monospace, SFMono-Regular, Menlo, Monaco, monospace" font-size="14" fill="#94a3b8">Agent A</text>

  <!-- Agent B node -->
  <rect x="100" y="165" width="140" height="50" rx="8" fill="#1e293b" stroke="#334155" stroke-width="1.5"/>
  <text x="170" y="195" text-anchor="middle" font-family="ui-monospace, SFMono-Regular, Menlo, Monaco, monospace" font-size="14" fill="#94a3b8">Agent B</text>

  <!-- Connection lines -->
  <line x1="240" y1="120" x2="380" y2="150" stroke="#818cf8" stroke-width="1.5" opacity="0.5"/>
  <line x1="240" y1="190" x2="380" y2="160" stroke="#818cf8" stroke-width="1.5" opacity="0.5"/>

  <!-- MCP label -->
  <text x="310" y="138" text-anchor="middle" font-family="ui-monospace, SFMono-Regular, Menlo, Monaco, monospace" font-size="10" fill="#818cf8" opacity="0.7">MCP</text>
  <text x="310" y="183" text-anchor="middle" font-family="ui-monospace, SFMono-Regular, Menlo, Monaco, monospace" font-size="10" fill="#818cf8" opacity="0.7">MCP</text>

  <!-- Server node -->
  <rect x="380" y="115" width="160" height="80" rx="10" fill="#1e293b" stroke="url(#accent)" stroke-width="2"/>
  <circle cx="405" cy="140" r="5" fill="#818cf8" opacity="0.8"/>
  <text x="460" y="148" text-anchor="middle" font-family="ui-monospace, SFMono-Regular, Menlo, Monaco, monospace" font-size="13" font-weight="bold" fill="#e2e8f0">Seam</text>
  <text x="460" y="175" text-anchor="middle" font-family="ui-monospace, SFMono-Regular, Menlo, Monaco, monospace" font-size="10" fill="#64748b">SQLite + Express</text>

  <!-- Title -->
  <text x="680" y="130" text-anchor="middle" font-family="ui-monospace, SFMono-Regular, Menlo, Monaco, monospace" font-size="42" font-weight="bold" fill="#f1f5f9" letter-spacing="-1">seam</text>

  <!-- Tagline -->
  <text x="680" y="162" text-anchor="middle" font-family="ui-monospace, SFMono-Regular, Menlo, Monaco, monospace" font-size="13" fill="#64748b">shared context for AI agents</text>

  <!-- Decorative line -->
  <rect x="200" y="265" width="500" height="1.5" rx="1" fill="url(#line)"/>

  <!-- Bottom tags -->
  <text x="310" y="285" text-anchor="middle" font-family="ui-monospace, SFMono-Regular, Menlo, Monaco, monospace" font-size="10" fill="#475569">lightweight</text>
  <text x="410" y="285" text-anchor="middle" font-family="ui-monospace, SFMono-Regular, Menlo, Monaco, monospace" font-size="10" fill="#475569">readable</text>
  <text x="510" y="285" text-anchor="middle" font-family="ui-monospace, SFMono-Regular, Menlo, Monaco, monospace" font-size="10" fill="#475569">peer-to-peer</text>
  <text x="600" y="285" text-anchor="middle" font-family="ui-monospace, SFMono-Regular, Menlo, Monaco, monospace" font-size="10" fill="#475569">open</text>

  <!-- Dots between tags -->
  <circle cx="360" cy="283" r="1.5" fill="#334155"/>
  <circle cx="460" cy="283" r="1.5" fill="#334155"/>
  <circle cx="555" cy="283" r="1.5" fill="#334155"/>
</svg>
